<svg width="530" height="522" viewBox="0 0 530 522" fill="none" xmlns="http://www.w3.org/2000/svg">
<path d="M415.247 418.494L172.001 432.643L231.027 214.151L331.574 208.285L415.247 418.494Z" fill="url(#paint0_linear_10_477)"/>
<path d="M379.594 420.557L207.654 430.581L245.751 213.291L316.851 209.144L379.594 420.557Z" fill="url(#paint1_linear_10_477)"/>
<path d="M329.451 423.441L257.738 427.669L266.474 212.067L296.127 210.369L329.451 423.441Z" fill="url(#paint2_linear_10_477)"/>
<path d="M277.177 220.447C330.485 217.339 372.817 199.459 371.727 180.509C370.638 161.56 326.541 148.718 273.233 151.825C219.925 154.933 177.593 172.813 178.682 191.762C179.772 210.712 223.869 223.554 277.177 220.447Z" fill="#340175"/>
<path d="M276.696 212.824C377.132 206.969 457.668 186.861 456.579 167.912C455.489 148.963 373.187 138.348 272.751 144.202C172.316 150.057 91.7796 170.165 92.8688 189.114C93.958 208.063 176.26 218.678 276.696 212.824Z" fill="#310B7C"/>
<path d="M395.348 145.939C362.778 142.342 319.773 141.415 272.793 144.154C172.393 150.015 91.8596 170.121 92.9461 189.071C93.2065 193.082 97.0314 196.7 103.922 199.912C135.933 207.579 176.71 211.024 220.761 208.391C307.696 203.314 379.114 176.82 395.348 145.939Z" fill="url(#paint3_linear_10_477)"/>
<path d="M450.454 159.662C451.38 160.949 451.899 162.339 451.978 163.745C453.065 182.695 374.522 202.698 276.493 208.414C178.463 214.13 98.1507 203.409 97.0642 184.459C96.9847 183.053 97.3446 181.632 98.144 180.194C94.5815 183.112 92.782 186.112 92.9462 189.071C94.0327 208.021 176.336 218.639 276.736 212.778C377.137 206.918 457.67 186.812 456.583 167.862C456.392 164.963 454.269 162.194 450.454 159.662Z" fill="url(#paint4_linear_10_477)"/>
<path d="M273.816 162.138C304.901 160.301 334.047 156.714 359.483 151.942C359.463 151.356 359.442 150.77 359.421 150.184C357.762 120.952 317.866 99.4547 270.36 102.243C222.853 105.031 185.676 130.982 187.394 160.24C187.415 160.826 187.496 161.44 187.544 161.966C213.362 163.784 242.731 163.976 273.816 162.138Z" fill="#310B7C"/>
<path d="M270.915 104.659C240.356 106.448 214.6 118.716 202.573 135.15C215.769 121.051 239.515 110.822 267.177 109.227C309.269 106.783 344.743 125.184 348.088 150.714C349.428 150.46 350.769 150.205 352.109 149.951C352.12 149.452 352.099 148.865 352.051 148.339C350.514 121.686 314.179 102.172 270.915 104.659Z" fill="url(#paint5_linear_10_477)"/>
<path d="M215.111 118.227C197.309 129.002 186.467 144.102 187.362 160.153C187.383 160.739 187.463 161.353 187.511 161.879C213.33 163.697 242.698 163.889 273.783 162.051C285.55 161.358 296.986 160.443 308.032 159.277C219.302 164.184 194.129 154.154 194.129 154.154C191.479 135.789 215.111 118.227 215.111 118.227Z" fill="#340175"/>
<path d="M426.024 170.677C430.939 170.39 434.792 167.871 434.63 165.051C434.468 162.23 430.352 160.176 425.437 160.462C420.522 160.749 416.669 163.267 416.831 166.088C416.993 168.909 421.109 170.963 426.024 170.677Z" fill="#340175"/>
<path d="M425.968 169.73C430.015 169.494 433.14 166.576 432.947 163.213C432.753 159.85 429.315 157.315 425.268 157.551C421.22 157.787 418.095 160.705 418.289 164.068C418.482 167.431 421.92 169.966 425.968 169.73Z" fill="#FFD647"/>
<path d="M425.324 158.23C421.694 158.45 418.941 161.016 419.105 163.975C420.769 164.589 422.667 165.165 424.733 165.53C427.152 165.912 429.474 166.033 431.492 165.871C431.992 165.09 432.221 164.113 432.19 163.233C431.966 160.248 428.953 158.01 425.324 158.23Z" fill="url(#paint6_linear_10_477)"/>
<path d="M366.221 188.317C371.136 188.03 374.989 185.511 374.827 182.69C374.664 179.87 370.549 177.815 365.633 178.102C360.718 178.388 356.865 180.907 357.027 183.728C357.189 186.549 361.305 188.603 366.221 188.317Z" fill="#340175"/>
<path d="M366.161 187.304C370.208 187.068 373.333 184.151 373.14 180.788C372.947 177.425 369.508 174.889 365.461 175.125C361.413 175.361 358.288 178.279 358.482 181.642C358.675 185.005 362.113 187.54 366.161 187.304Z" fill="#FFD647"/>
<path d="M365.467 175.791C361.838 176.012 359.084 178.578 359.248 181.536C360.913 182.15 362.811 182.727 364.877 183.092C367.296 183.473 369.617 183.594 371.635 183.432C372.136 182.651 372.365 181.674 372.333 180.795C372.169 177.836 369.096 175.571 365.467 175.791Z" fill="url(#paint7_linear_10_477)"/>
<path d="M306.119 201.822C311.034 201.535 314.887 199.016 314.725 196.196C314.563 193.375 310.447 191.321 305.532 191.607C300.616 191.894 296.763 194.412 296.926 197.233C297.088 200.054 301.204 202.108 306.119 201.822Z" fill="#340175"/>
<path d="M306.059 200.809C310.107 200.573 313.231 197.656 313.038 194.293C312.845 190.93 309.407 188.395 305.359 188.63C301.311 188.866 298.186 191.784 298.38 195.147C298.573 198.51 302.011 201.045 306.059 200.809Z" fill="#FFD647"/>
<path d="M305.437 189.309C301.808 189.529 299.054 192.095 299.218 195.053C300.883 195.668 302.781 196.244 304.847 196.609C307.266 196.991 309.587 197.111 311.605 196.95C312.105 196.168 312.335 195.192 312.303 194.312C312.079 191.327 309.039 189.148 305.437 189.309Z" fill="url(#paint8_linear_10_477)"/>
<path d="M245.516 205.33C250.431 205.043 254.284 202.524 254.122 199.704C253.96 196.883 249.844 194.828 244.929 195.115C240.014 195.402 236.161 197.92 236.323 200.741C236.485 203.562 240.601 205.616 245.516 205.33Z" fill="#340175"/>
<path d="M245.46 204.383C249.508 204.147 252.632 201.229 252.439 197.866C252.246 194.503 248.808 191.968 244.76 192.204C240.712 192.44 237.587 195.357 237.781 198.721C237.974 202.084 241.412 204.619 245.46 204.383Z" fill="#FFD647"/>
<path d="M244.759 192.871C241.129 193.091 238.375 195.657 238.54 198.615C240.204 199.23 242.102 199.806 244.168 200.171C246.587 200.552 248.909 200.673 250.927 200.512C251.427 199.73 251.656 198.753 251.625 197.874C251.461 194.916 248.388 192.65 244.759 192.871Z" fill="url(#paint9_linear_10_477)"/>
<path d="M184.286 198.914C189.201 198.627 193.054 196.108 192.892 193.287C192.73 190.467 188.614 188.412 183.698 188.699C178.783 188.985 174.93 191.504 175.092 194.325C175.254 197.146 179.37 199.2 184.286 198.914Z" fill="#340175"/>
<path d="M184.226 197.901C188.273 197.665 191.398 194.748 191.205 191.385C191.011 188.021 187.573 185.486 183.526 185.722C179.478 185.958 176.353 188.876 176.546 192.239C176.74 195.602 180.178 198.137 184.226 197.901Z" fill="#FFD647"/>
<path d="M183.545 186.385C179.916 186.605 177.162 189.171 177.327 192.129C178.991 192.744 180.889 193.32 182.955 193.685C185.374 194.067 187.696 194.187 189.714 194.026C190.214 193.244 190.443 192.268 190.412 191.388C190.247 188.43 187.148 186.224 183.545 186.385Z" fill="url(#paint10_linear_10_477)"/>
<path d="M122.822 188.359C127.737 188.072 131.591 185.554 131.428 182.733C131.266 179.912 127.15 177.858 122.235 178.144C117.32 178.431 113.467 180.95 113.629 183.77C113.791 186.591 117.907 188.645 122.822 188.359Z" fill="#340175"/>
<path d="M122.766 187.412C126.814 187.176 129.938 184.259 129.745 180.895C129.552 177.532 126.114 174.997 122.066 175.233C118.018 175.469 114.894 178.387 115.087 181.75C115.28 185.113 118.718 187.648 122.766 187.412Z" fill="#FFD647"/>
<path d="M122.132 175.915C118.503 176.135 115.749 178.701 115.913 181.659C117.578 182.274 119.476 182.85 121.542 183.215C123.961 183.596 126.282 183.717 128.3 183.556C128.8 182.774 129.03 181.797 128.998 180.918C128.774 177.932 125.761 175.694 122.132 175.915Z" fill="url(#paint11_linear_10_477)"/>
<path d="M195.045 158.464C195.045 158.464 222.63 162.096 260.212 157.38C260.212 157.38 265.046 121.015 285.784 104.586C285.757 104.646 208.473 100.713 195.045 158.464Z" fill="url(#paint12_linear_10_477)"/>
<defs>
<linearGradient id="paint0_linear_10_477" x1="293.607" y1="425.586" x2="281.113" y2="211.25" gradientUnits="userSpaceOnUse">
<stop stop-color="white" stop-opacity="0"/>
<stop offset="1" stop-color="white" stop-opacity="0.7"/>
</linearGradient>
<linearGradient id="paint1_linear_10_477" x1="293.608" y1="425.586" x2="281.113" y2="211.25" gradientUnits="userSpaceOnUse">
<stop stop-color="white" stop-opacity="0"/>
<stop offset="1" stop-color="white" stop-opacity="0.7"/>
</linearGradient>
<linearGradient id="paint2_linear_10_477" x1="293.608" y1="425.586" x2="281.113" y2="211.25" gradientUnits="userSpaceOnUse">
<stop stop-color="white" stop-opacity="0"/>
<stop offset="1" stop-color="white" stop-opacity="0.7"/>
</linearGradient>
<linearGradient id="paint3_linear_10_477" x1="241.985" y1="165.205" x2="329.315" y2="295.044" gradientUnits="userSpaceOnUse">
<stop stop-color="white" stop-opacity="0"/>
<stop offset="1" stop-color="white"/>
</linearGradient>
<linearGradient id="paint4_linear_10_477" x1="93.6637" y1="201.992" x2="457.342" y2="181.088" gradientUnits="userSpaceOnUse">
<stop stop-color="white" stop-opacity="0"/>
<stop offset="1" stop-color="white"/>
</linearGradient>
<linearGradient id="paint5_linear_10_477" x1="202.473" y1="133.922" x2="350.722" y2="125.401" gradientUnits="userSpaceOnUse">
<stop stop-color="white" stop-opacity="0"/>
<stop offset="1" stop-color="white"/>
</linearGradient>
<linearGradient id="paint6_linear_10_477" x1="418.998" y1="162.624" x2="432.086" y2="161.872" gradientUnits="userSpaceOnUse">
<stop stop-color="white" stop-opacity="0"/>
<stop offset="1" stop-color="white"/>
</linearGradient>
<linearGradient id="paint7_linear_10_477" x1="359.166" y1="180.221" x2="372.255" y2="179.468" gradientUnits="userSpaceOnUse">
<stop stop-color="white" stop-opacity="0"/>
<stop offset="1" stop-color="white"/>
</linearGradient>
<linearGradient id="paint8_linear_10_477" x1="299.1" y1="193.737" x2="312.188" y2="192.984" gradientUnits="userSpaceOnUse">
<stop stop-color="white" stop-opacity="0"/>
<stop offset="1" stop-color="white"/>
</linearGradient>
<linearGradient id="paint9_linear_10_477" x1="238.46" y1="197.272" x2="251.548" y2="196.519" gradientUnits="userSpaceOnUse">
<stop stop-color="white" stop-opacity="0"/>
<stop offset="1" stop-color="white"/>
</linearGradient>
<linearGradient id="paint10_linear_10_477" x1="177.246" y1="190.825" x2="190.334" y2="190.073" gradientUnits="userSpaceOnUse">
<stop stop-color="white" stop-opacity="0"/>
<stop offset="1" stop-color="white"/>
</linearGradient>
<linearGradient id="paint11_linear_10_477" x1="115.798" y1="180.299" x2="128.886" y2="179.546" gradientUnits="userSpaceOnUse">
<stop stop-color="white" stop-opacity="0"/>
<stop offset="1" stop-color="white"/>
</linearGradient>
<linearGradient id="paint12_linear_10_477" x1="193.726" y1="135.799" x2="287.228" y2="130.424" gradientUnits="userSpaceOnUse">
<stop stop-color="white" stop-opacity="0"/>
<stop offset="1" stop-color="white"/>
</linearGradient>
</defs>
</svg>
