<svg width="1120" height="1121" viewBox="0 0 1120 1121" fill="none" xmlns="http://www.w3.org/2000/svg">
<path d="M370.699 349.748L368.611 351.568L360.335 329.837L362.39 328.045L382.743 339.245L380.655 341.066L363.691 331.49L363.563 331.602L370.699 349.748ZM365.878 342.644L374.293 335.306L375.83 337.075L367.416 344.413L365.878 342.644Z" fill="url(#paint0_linear_10_604)"/>
<path d="M414.211 317.268L403.299 298.375L405.471 297.108L409.499 304.082L409.683 303.975C409.7 303.636 409.74 303.193 409.802 302.647C409.867 302.092 410.079 301.507 410.438 300.895C410.8 300.272 411.442 299.693 412.362 299.156C413.552 298.461 414.773 298.148 416.026 298.214C417.278 298.281 418.475 298.713 419.617 299.511C420.758 300.309 421.759 301.452 422.618 302.94C423.485 304.441 423.982 305.89 424.108 307.288C424.231 308.68 424.016 309.94 423.462 311.069C422.905 312.192 422.038 313.097 420.86 313.784C419.952 314.314 419.138 314.587 418.418 314.604C417.695 314.615 417.074 314.513 416.555 314.297C416.034 314.075 415.618 313.882 415.31 313.717L415.052 313.867L416.309 316.044L414.211 317.268ZM412.254 308.938C412.872 310.008 413.574 310.861 414.359 311.496C415.141 312.125 415.966 312.495 416.833 312.606C417.697 312.71 418.565 312.508 419.436 312C420.344 311.47 420.963 310.788 421.293 309.954C421.626 309.11 421.709 308.19 421.544 307.193C421.381 306.186 421.008 305.179 420.425 304.17C419.85 303.174 419.178 302.365 418.409 301.745C417.643 301.115 416.819 300.745 415.935 300.635C415.054 300.516 414.154 300.725 413.234 301.262C412.35 301.777 411.738 302.435 411.396 303.234C411.051 304.028 410.955 304.914 411.11 305.893C411.262 306.865 411.643 307.88 412.254 308.938Z" fill="url(#paint1_linear_10_604)"/>
<path d="M468.687 291.852C467.401 292.306 466.153 292.38 464.944 292.076C463.732 291.765 462.642 291.11 461.674 290.111C460.703 289.105 459.935 287.783 459.37 286.145C458.809 284.52 458.601 283.012 458.744 281.621C458.888 280.23 459.343 279.034 460.11 278.034C460.877 277.033 461.91 276.304 463.209 275.846C464.214 275.492 465.065 275.38 465.764 275.51C466.467 275.631 467.046 275.849 467.5 276.163C467.958 276.469 468.321 276.725 468.587 276.932L468.788 276.861L466.161 269.248L468.533 268.412L475.649 289.037L473.358 289.844L472.538 287.467L472.257 287.567C472.18 287.91 472.055 288.353 471.882 288.896C471.706 289.433 471.378 289.974 470.898 290.519C470.415 291.059 469.678 291.503 468.687 291.852ZM468.272 289.604C469.223 289.269 469.941 288.737 470.426 288.009C470.909 287.274 471.168 286.403 471.204 285.396C471.237 284.383 471.053 283.292 470.649 282.124C470.251 280.969 469.735 280.018 469.101 279.27C468.465 278.515 467.735 278.012 466.912 277.76C466.087 277.501 465.192 277.542 464.227 277.882C463.222 278.236 462.474 278.789 461.983 279.542C461.496 280.286 461.236 281.157 461.205 282.155C461.178 283.143 461.352 284.181 461.727 285.269C462.107 286.37 462.62 287.311 463.265 288.093C463.915 288.865 464.663 289.4 465.509 289.697C466.359 289.984 467.28 289.953 468.272 289.604Z" fill="url(#paint2_linear_10_604)"/>
<path d="M523.382 271.323L522.021 261.746L524.507 261.372L526.81 277.573L524.324 277.946L523.934 275.204L523.765 275.23C523.503 276.109 523.013 276.897 522.294 277.594C521.574 278.284 520.603 278.721 519.381 278.905C518.37 279.057 517.439 278.97 516.59 278.645C515.739 278.313 515.025 277.731 514.448 276.899C513.869 276.059 513.482 274.95 513.286 273.572L511.823 263.278L514.309 262.904L515.748 273.03C515.916 274.211 516.38 275.104 517.14 275.708C517.908 276.311 518.807 276.535 519.84 276.379C520.458 276.287 521.064 276.034 521.658 275.622C522.259 275.208 522.731 274.642 523.074 273.922C523.423 273.202 523.526 272.335 523.382 271.323Z" fill="url(#paint3_linear_10_604)"/>
<path d="M576.761 276.857C575.228 276.794 573.926 276.377 572.855 275.608C571.783 274.839 570.981 273.807 570.447 272.513C569.914 271.219 569.687 269.756 569.768 268.124C569.85 266.464 570.227 265.012 570.9 263.767C571.58 262.516 572.488 261.555 573.623 260.884C574.766 260.206 576.075 259.897 577.551 259.958C578.701 260.005 579.726 260.261 580.628 260.724C581.529 261.188 582.256 261.815 582.807 262.606C583.358 263.396 583.68 264.305 583.771 265.332L581.259 265.229C581.104 264.476 580.711 263.799 580.079 263.197C579.455 262.588 578.59 262.261 577.483 262.215C576.503 262.175 575.632 262.395 574.869 262.875C574.113 263.349 573.507 264.038 573.05 264.944C572.6 265.842 572.345 266.908 572.284 268.143C572.222 269.405 572.366 270.513 572.718 271.466C573.076 272.419 573.608 273.169 574.313 273.717C575.026 274.265 575.879 274.56 576.872 274.601C577.525 274.628 578.123 274.539 578.666 274.334C579.21 274.129 579.677 273.821 580.067 273.411C580.457 273 580.744 272.5 580.93 271.911L583.442 272.014C583.252 272.973 582.858 273.828 582.26 274.578C581.668 275.321 580.904 275.901 579.966 276.317C579.036 276.727 577.967 276.907 576.761 276.857Z" fill="url(#paint4_linear_10_604)"/>
<path d="M637.425 269.009L636.92 271.079L628.667 269.128L629.172 267.058L637.425 269.009ZM632.506 263.818L634.953 264.396L631.258 279.549C631.09 280.239 631.064 280.78 631.18 281.172C631.305 281.559 631.513 281.849 631.802 282.042C632.1 282.229 632.428 282.365 632.788 282.45C633.057 282.514 633.282 282.552 633.462 282.565C633.643 282.572 633.788 282.577 633.896 282.581L633.859 284.892C633.678 284.915 633.431 284.923 633.119 284.915C632.805 284.913 632.42 284.859 631.964 284.751C631.273 284.588 630.631 284.279 630.04 283.826C629.456 283.374 629.02 282.793 628.733 282.083C628.452 281.374 628.425 280.558 628.65 279.633L632.506 263.818Z" fill="url(#paint5_linear_10_604)"/>
<path d="M678.081 300.35L684.881 285.466L687.173 286.499L680.373 301.383L678.081 300.35ZM687.179 283.51C686.733 283.309 686.417 282.983 686.232 282.534C686.053 282.087 686.061 281.651 686.256 281.224C686.451 280.798 686.776 280.505 687.232 280.344C687.695 280.186 688.149 280.208 688.596 280.41C689.043 280.611 689.355 280.935 689.534 281.382C689.719 281.831 689.714 282.269 689.519 282.695C689.324 283.122 688.996 283.414 688.533 283.572C688.077 283.732 687.626 283.712 687.179 283.51Z" fill="url(#paint6_linear_10_604)"/>
<path d="M728.549 317.253L722.849 325.279L720.796 323.827L730.271 310.486L732.255 311.888L730.774 313.973L730.948 314.096C731.743 313.64 732.605 313.432 733.535 313.471C734.469 313.505 735.441 313.879 736.45 314.592C737.355 315.232 738.015 315.977 738.43 316.827C738.849 317.671 738.982 318.6 738.829 319.614C738.68 320.621 738.202 321.692 737.396 322.827L731.375 331.305L729.322 329.853L735.244 321.515C735.988 320.467 736.296 319.458 736.166 318.488C736.04 317.512 735.502 316.688 734.55 316.015C733.895 315.552 733.208 315.28 732.491 315.199C731.779 315.122 731.082 315.251 730.399 315.586C729.717 315.922 729.1 316.477 728.549 317.253Z" fill="url(#paint7_linear_10_604)"/>
<path d="M763.212 368.215C762.372 367.338 761.763 366.476 761.384 365.629C761.001 364.787 760.789 363.981 760.751 363.211C760.712 362.452 760.779 361.752 760.954 361.113L763.354 361.586C763.296 361.957 763.249 362.4 763.213 362.917C763.171 363.439 763.257 364.016 763.469 364.648C763.682 365.291 764.129 365.969 764.812 366.682C765.725 367.636 766.71 368.202 767.766 368.381C768.822 368.559 769.842 368.176 770.826 367.233L773.226 364.933L773.079 364.779C772.736 364.852 772.287 364.918 771.734 364.976C771.19 365.035 770.576 364.954 769.893 364.733C769.22 364.513 768.515 364.018 767.778 363.249C766.864 362.294 766.27 361.222 765.994 360.03C765.723 358.843 765.807 357.617 766.246 356.35C766.69 355.088 767.527 353.868 768.758 352.688C769.968 351.528 771.225 350.731 772.53 350.297C773.84 349.858 775.105 349.782 776.324 350.069C777.549 350.352 778.637 350.991 779.59 351.986C780.327 352.755 780.783 353.488 780.959 354.186C781.145 354.883 781.192 355.507 781.1 356.058C781.018 356.609 780.938 357.049 780.861 357.379L781.038 357.564L782.914 355.765L784.594 357.519L772.442 369.167C771.427 370.14 770.381 370.7 769.303 370.848C768.225 371.006 767.166 370.84 766.127 370.35C765.088 369.871 764.116 369.159 763.212 368.215ZM769.644 361.932C770.342 362.66 771.098 363.116 771.913 363.299C772.727 363.483 773.573 363.405 774.449 363.067C775.325 362.729 776.199 362.143 777.07 361.307C777.921 360.491 778.55 359.643 778.955 358.763C779.361 357.882 779.508 357.013 779.395 356.157C779.283 355.3 778.873 354.503 778.166 353.764C777.429 352.995 776.62 352.54 775.739 352.401C774.863 352.266 773.974 352.385 773.073 352.758C772.176 353.136 771.327 353.708 770.527 354.475C769.707 355.261 769.104 356.085 768.719 356.946C768.344 357.807 768.22 358.663 768.348 359.515C768.485 360.367 768.917 361.173 769.644 361.932Z" fill="url(#paint8_linear_10_604)"/>
<path d="M824.648 453.525C824.263 452.562 824.095 451.615 824.143 450.683C824.198 449.748 824.478 448.909 824.985 448.167C825.498 447.421 826.248 446.848 827.234 446.447C828.103 446.094 828.875 445.979 829.552 446.102C830.235 446.223 830.846 446.508 831.384 446.956C831.923 447.404 832.406 447.943 832.834 448.574C833.271 449.209 833.677 449.861 834.051 450.529C834.538 451.404 834.926 452.117 835.214 452.666C835.512 453.22 835.789 453.598 836.046 453.8C836.305 454.009 836.622 454.037 836.997 453.885L837.076 453.853C838.05 453.457 838.7 452.882 839.026 452.128C839.355 451.381 839.304 450.47 838.875 449.395C838.429 448.281 837.837 447.506 837.097 447.07C836.357 446.635 835.66 446.401 835.004 446.369L834.908 443.832C835.988 443.853 836.915 444.089 837.692 444.54C838.478 444.995 839.13 445.573 839.647 446.275C840.174 446.981 840.59 447.716 840.896 448.481C841.091 448.969 841.256 449.554 841.39 450.235C841.534 450.921 841.547 451.632 841.429 452.37C841.313 453.115 840.976 453.831 840.417 454.518C839.858 455.206 838.976 455.794 837.772 456.284L827.785 460.345L826.853 458.01L828.905 457.176L828.858 457.057C828.466 457.032 828.008 456.912 827.486 456.695C826.963 456.478 826.448 456.117 825.939 455.61C825.431 455.104 825.001 454.409 824.648 453.525ZM826.882 453.03C827.251 453.954 827.743 454.658 828.357 455.144C828.975 455.637 829.634 455.928 830.336 456.019C831.04 456.116 831.708 456.036 832.339 455.779L834.471 454.912C834.313 454.861 834.118 454.688 833.885 454.392C833.661 454.099 833.426 453.75 833.179 453.344C832.942 452.942 832.716 452.548 832.5 452.16C832.293 451.777 832.123 451.466 831.99 451.229C831.669 450.654 831.314 450.139 830.925 449.684C830.546 449.232 830.118 448.916 829.64 448.735C829.171 448.557 828.641 448.589 828.049 448.83C827.24 449.159 826.748 449.708 826.573 450.476C826.407 451.249 826.51 452.1 826.882 453.03Z" fill="url(#paint9_linear_10_604)"/>
<path d="M861.535 501.931L840.137 506.194L839.665 503.724L861.063 499.462L861.535 501.931Z" fill="url(#paint10_linear_10_604)"/>
<path d="M867.596 559.878L845.778 560.019L845.782 557.504L867.6 557.364L867.596 559.878Z" fill="url(#paint11_linear_10_604)"/>
<path d="M820.219 659.987C820.377 659.591 820.552 659.252 820.742 658.968C820.926 658.681 821.071 658.491 821.178 658.395L823.002 659.801C822.629 660.311 822.375 660.791 822.241 661.242C822.106 661.693 822.146 662.155 822.362 662.63C822.568 663.108 823.001 663.641 823.66 664.229L824.675 665.133L842.228 665.551L841.214 668.082L827.402 667.492L827.339 667.65L837.789 676.626L836.774 679.157L821.916 665.832C821.246 665.232 820.739 664.616 820.395 663.984C820.045 663.35 819.858 662.7 819.834 662.034C819.808 661.374 819.936 660.692 820.219 659.987Z" fill="url(#paint12_linear_10_604)"/>
<path d="M799.624 712.917C800.421 711.673 801.418 710.771 802.613 710.211C803.804 709.656 805.101 709.455 806.505 709.608C807.905 709.768 809.317 710.301 810.743 711.21C812.18 712.126 813.269 713.185 814.007 714.388C814.742 715.598 815.107 716.857 815.101 718.168C815.092 719.484 814.689 720.764 813.891 722.008C813.094 723.251 812.099 724.15 810.908 724.705C809.713 725.266 808.413 725.465 807.007 725.302C805.597 725.145 804.174 724.608 802.736 723.692C801.311 722.784 800.234 721.727 799.505 720.521C798.772 719.322 798.411 718.064 798.42 716.748C798.425 715.437 798.826 714.16 799.624 712.917ZM801.529 714.131C800.923 715.075 800.667 716.007 800.761 716.926C800.855 717.845 801.203 718.702 801.806 719.499C802.409 720.296 803.171 720.988 804.094 721.576C805.016 722.164 805.97 722.565 806.954 722.779C807.939 722.994 808.872 722.953 809.754 722.656C810.637 722.359 811.381 721.739 811.987 720.794C812.593 719.85 812.845 718.916 812.745 717.993C812.645 717.07 812.291 716.209 811.682 715.408C811.074 714.608 810.308 713.914 809.386 713.326C808.463 712.738 807.513 712.339 806.534 712.128C805.556 711.917 804.628 711.962 803.752 712.263C802.876 712.563 802.134 713.186 801.529 714.131Z" fill="url(#paint13_linear_10_604)"/>
<path d="M768.514 763.307L775.531 769.965L773.8 771.789L761.93 760.525L763.661 758.701L765.67 760.608L765.788 760.484C765.449 759.634 765.347 758.715 765.482 757.727C765.622 756.744 766.117 755.804 766.968 754.907C767.672 754.165 768.46 753.66 769.332 753.391C770.209 753.127 771.134 753.143 772.106 753.439C773.084 753.74 774.078 754.369 775.087 755.328L782.63 762.485L780.899 764.309L773.48 757.269C772.615 756.447 771.695 756.034 770.72 756.03C769.74 756.03 768.891 756.409 768.172 757.167C767.742 757.62 767.421 758.191 767.208 758.88C766.99 759.574 766.969 760.308 767.145 761.082C767.316 761.861 767.772 762.603 768.514 763.307Z" fill="url(#paint14_linear_10_604)"/>
<path d="M728.051 789.72L737.554 803.041L735.581 804.458L734.146 802.446L734.007 802.545C734.235 803.378 734.178 804.228 733.837 805.094C733.495 805.96 732.926 806.679 732.13 807.251C731.98 807.359 731.79 807.49 731.561 807.646C731.332 807.802 731.156 807.915 731.032 807.987L729.547 805.905C729.629 805.873 729.806 805.785 730.079 805.641C730.35 805.508 730.621 805.344 730.892 805.149C731.538 804.685 732.018 804.135 732.332 803.499C732.644 802.873 732.778 802.217 732.734 801.531C732.689 800.856 732.452 800.218 732.023 799.616L726.009 791.186L728.051 789.72Z" fill="url(#paint15_linear_10_604)"/>
<path d="M631.713 836.193L640.388 850.896L637.824 851.534L631.454 840.21L631.289 840.251L630.836 853.275L628.231 853.924L621.954 842.62L621.788 842.661L621.284 855.654L618.72 856.292L619.721 839.18L622.12 838.583L628.541 849.938L628.789 849.876L629.315 836.791L631.713 836.193Z" fill="url(#paint16_linear_10_604)"/>
<path d="M573.214 845.2C574.789 845.115 576.163 845.389 577.336 846.023C578.503 846.664 579.424 847.595 580.099 848.818C580.767 850.048 581.139 851.5 581.216 853.174C581.293 854.848 581.056 856.341 580.505 857.651C579.947 858.968 579.134 860.015 578.068 860.791C576.995 861.575 575.721 862.006 574.246 862.086C573.395 862.132 572.548 862.036 571.705 861.797C570.862 861.558 570.086 861.138 569.376 860.536C568.666 859.941 568.085 859.133 567.633 858.112C567.181 857.091 566.919 855.818 566.849 854.293L566.8 853.229L579.396 852.547L579.495 854.718L569.453 855.261C569.496 856.184 569.718 856.997 570.12 857.7C570.515 858.405 571.059 858.948 571.752 859.33C572.438 859.712 573.234 859.879 574.142 859.83C575.142 859.776 575.996 859.481 576.704 858.945C577.404 858.416 577.932 857.747 578.286 856.939C578.64 856.13 578.796 855.275 578.754 854.374L578.688 852.927C578.631 851.692 578.37 850.657 577.905 849.822C577.434 848.994 576.805 848.377 576.018 847.972C575.232 847.573 574.332 847.401 573.318 847.456C572.658 847.492 572.067 847.616 571.543 847.83C571.013 848.05 570.562 848.359 570.189 848.756C569.816 849.161 569.537 849.652 569.35 850.231L566.893 849.681C567.111 848.845 567.507 848.098 568.081 847.441C568.655 846.791 569.378 846.268 570.248 845.873C571.119 845.484 572.108 845.26 573.214 845.2Z" fill="url(#paint17_linear_10_604)"/>
<path d="M524.62 843.149L521.484 864.74L518.993 864.398L520.151 856.428L519.94 856.399C519.716 856.655 519.41 856.978 519.023 857.369C518.628 857.767 518.1 858.096 517.438 858.356C516.767 858.622 515.905 858.683 514.849 858.538C513.484 858.35 512.33 857.844 511.388 857.019C510.446 856.194 509.774 855.116 509.371 853.785C508.969 852.454 508.892 850.937 509.139 849.237C509.388 847.522 509.896 846.075 510.662 844.897C511.428 843.727 512.378 842.868 513.513 842.321C514.646 841.782 515.888 841.605 517.239 841.79C518.28 841.933 519.089 842.22 519.665 842.651C520.241 843.088 520.665 843.551 520.938 844.041C521.211 844.537 521.417 844.945 521.557 845.265L521.852 845.306L522.214 842.818L524.62 843.149ZM520.995 850.909C521.173 849.686 521.15 848.582 520.927 847.598C520.703 846.621 520.285 845.822 519.672 845.2C519.058 844.585 518.251 844.209 517.252 844.072C516.211 843.929 515.302 844.083 514.526 844.536C513.741 844.994 513.106 845.667 512.618 846.553C512.122 847.446 511.791 848.468 511.623 849.621C511.458 850.76 511.485 851.81 511.704 852.772C511.915 853.74 512.333 854.54 512.959 855.17C513.577 855.807 514.414 856.198 515.469 856.343C516.483 856.483 517.371 856.343 518.135 855.925C518.898 855.513 519.522 854.875 520.007 854.01C520.49 853.151 520.82 852.118 520.995 850.909Z" fill="url(#paint18_linear_10_604)"/>
<path d="M467.08 829.882C468.411 830.334 469.519 830.966 470.403 831.776C471.28 832.585 471.884 833.499 472.214 834.519C472.535 835.543 472.535 836.605 472.214 837.703L469.673 836.839C469.849 836.157 469.82 835.505 469.584 834.885C469.346 834.271 468.946 833.723 468.384 833.239C467.823 832.756 467.145 832.379 466.352 832.11C465.464 831.808 464.624 831.695 463.831 831.77C463.038 831.846 462.351 832.092 461.77 832.51C461.189 832.927 460.773 833.498 460.522 834.223C460.259 834.981 460.216 835.713 460.392 836.418C460.566 837.13 460.959 837.774 461.571 838.349C462.183 838.925 463.014 839.391 464.063 839.748L465.717 840.31L464.949 842.525L463.295 841.962C462.475 841.683 461.704 841.586 460.983 841.671C460.255 841.754 459.623 842.004 459.087 842.422C458.545 842.838 458.148 843.408 457.896 844.133C457.654 844.83 457.598 845.49 457.728 846.112C457.859 846.734 458.156 847.285 458.621 847.766C459.079 848.244 459.688 848.612 460.448 848.871C461.16 849.113 461.878 849.211 462.601 849.164C463.315 849.122 463.955 848.923 464.522 848.568C465.086 848.22 465.504 847.709 465.775 847.036L468.195 847.859C467.78 848.926 467.126 849.761 466.232 850.365C465.337 850.975 464.315 851.341 463.169 851.461C462.015 851.579 460.843 851.436 459.653 851.031C458.375 850.597 457.369 849.966 456.634 849.138C455.896 848.317 455.427 847.404 455.227 846.398C455.028 845.393 455.096 844.403 455.434 843.43C455.836 842.269 456.486 841.384 457.382 840.773C458.271 840.16 459.291 839.873 460.443 839.912L460.499 839.751C459.269 839.093 458.442 838.193 458.019 837.052C457.593 835.917 457.607 834.695 458.061 833.386C458.45 832.266 459.105 831.363 460.026 830.679C460.939 829.999 462.008 829.582 463.234 829.429C464.459 829.276 465.741 829.427 467.08 829.882Z" fill="url(#paint19_linear_10_604)"/>
<path d="M381.741 775.795L367.04 792.828L365.2 791.243L366.899 789.275L366.673 789.08C366.347 789.175 365.917 789.282 365.381 789.402C364.836 789.523 364.216 789.513 363.52 789.374C362.815 789.234 362.059 788.817 361.252 788.122C360.208 787.222 359.513 786.169 359.167 784.961C358.82 783.753 358.837 782.479 359.216 781.137C359.596 779.795 360.347 778.473 361.47 777.172C362.602 775.86 363.807 774.915 365.084 774.338C366.357 773.766 367.616 773.557 368.861 773.711C370.102 773.871 371.239 774.396 372.273 775.286C373.069 775.973 373.593 776.654 373.844 777.33C374.091 778.011 374.197 778.633 374.163 779.194C374.125 779.76 374.078 780.217 374.023 780.563L374.184 780.702L379.836 774.153L381.741 775.795ZM370.514 785.021C371.321 784.085 371.896 783.142 372.239 782.19C372.577 781.244 372.656 780.342 372.477 779.485C372.293 778.632 371.819 777.877 371.055 777.219C370.259 776.533 369.413 776.17 368.519 776.13C367.614 776.091 366.719 776.314 365.833 776.797C364.936 777.281 364.108 777.964 363.347 778.846C362.595 779.717 362.052 780.618 361.718 781.548C361.374 782.48 361.294 783.382 361.48 784.254C361.655 785.127 362.146 785.911 362.953 786.607C363.728 787.274 364.548 787.639 365.414 787.701C366.276 787.768 367.143 787.568 368.015 787.101C368.883 786.639 369.715 785.946 370.514 785.021Z" fill="url(#paint20_linear_10_604)"/>
<path d="M338.544 740.659L325.717 750.82L324.214 748.912L326.151 747.378L326.045 747.244C325.226 747.512 324.377 747.496 323.498 747.196C322.619 746.895 321.876 746.36 321.269 745.591C321.155 745.446 321.015 745.262 320.849 745.04C320.683 744.818 320.562 744.647 320.485 744.527L322.489 742.939C322.525 743.019 322.621 743.193 322.777 743.459C322.922 743.724 323.099 743.988 323.305 744.25C323.798 744.875 324.368 745.329 325.017 745.612C325.655 745.895 326.315 745.997 326.996 745.92C327.667 745.842 328.292 745.573 328.871 745.114L336.988 738.685L338.544 740.659Z" fill="url(#paint21_linear_10_604)"/>
<path d="M307.704 692.534C308.381 693.847 308.663 695.162 308.55 696.478C308.435 697.789 307.959 699.014 307.125 700.154C306.287 701.288 305.119 702.246 303.62 703.028C302.109 703.816 300.648 704.23 299.238 704.269C297.825 704.301 296.553 703.988 295.422 703.328C294.287 702.662 293.382 701.673 292.705 700.36C292.029 699.046 291.748 697.735 291.864 696.425C291.976 695.108 292.455 693.881 293.299 692.744C294.14 691.601 295.316 690.634 296.827 689.846C298.326 689.064 299.778 688.659 301.186 688.629C302.589 688.594 303.858 688.909 304.993 689.575C306.124 690.235 307.027 691.221 307.704 692.534ZM305.702 693.579C305.188 692.581 304.51 691.894 303.668 691.516C302.826 691.138 301.91 691.011 300.919 691.136C299.929 691.26 298.948 691.575 297.979 692.081C297.009 692.587 296.185 693.213 295.507 693.959C294.829 694.706 294.398 695.535 294.213 696.449C294.029 697.362 294.194 698.317 294.708 699.315C295.222 700.312 295.903 700.998 296.751 701.373C297.599 701.748 298.522 701.871 299.519 701.743C300.516 701.616 301.499 701.299 302.469 700.793C303.438 700.287 304.259 699.663 304.931 698.92C305.602 698.177 306.027 697.35 306.206 696.44C306.384 695.53 306.216 694.576 305.702 693.579Z" fill="url(#paint22_linear_10_604)"/>
<path d="M288.917 647.377L268.019 653.647L267.313 651.234L275.028 648.92L274.968 648.715C274.644 648.619 274.225 648.478 273.712 648.291C273.189 648.099 272.675 647.757 272.168 647.264C271.653 646.766 271.245 646.006 270.947 644.983C270.56 643.661 270.549 642.396 270.914 641.189C271.279 639.982 271.984 638.914 273.029 637.985C274.075 637.056 275.421 636.345 277.067 635.851C278.727 635.353 280.248 635.204 281.631 635.404C283.008 635.607 284.176 636.109 285.135 636.911C286.088 637.715 286.756 638.772 287.138 640.08C287.433 641.089 287.503 641.947 287.347 642.654C287.184 643.363 286.936 643.945 286.604 644.401C286.264 644.859 285.977 645.219 285.743 645.482L285.827 645.768L288.235 645.046L288.917 647.377ZM280.386 647.356C281.57 647.001 282.563 646.514 283.367 645.895C284.163 645.278 284.718 644.559 285.033 643.737C285.341 642.918 285.354 642.025 285.071 641.057C284.776 640.048 284.264 639.286 283.537 638.77C282.8 638.249 281.929 637.955 280.925 637.885C279.912 637.811 278.847 637.941 277.732 638.276C276.63 638.607 275.686 639.075 274.902 639.681C274.108 640.283 273.552 641.002 273.235 641.839C272.908 642.671 272.895 643.598 273.193 644.621C273.48 645.602 273.97 646.353 274.662 646.872C275.347 647.393 276.182 647.691 277.166 647.766C278.143 647.844 279.216 647.707 280.386 647.356Z" fill="url(#paint23_linear_10_604)"/>
<path d="M255.694 590.425L277.399 588.212L277.634 590.715L255.929 592.928L255.694 590.425Z" fill="url(#paint24_linear_10_604)"/>
<path d="M277.163 534.919C277.011 536.489 276.533 537.811 275.729 538.888C274.919 539.956 273.858 540.743 272.546 541.246C271.228 541.742 269.734 541.915 268.064 541.766C266.395 541.618 264.953 541.183 263.738 540.461C262.518 539.732 261.603 538.788 260.995 537.629C260.381 536.462 260.145 535.143 260.287 533.673C260.37 532.824 260.593 531.999 260.956 531.197C261.319 530.395 261.852 529.684 262.555 529.062C263.25 528.439 264.137 527.973 265.216 527.662C266.295 527.352 267.595 527.265 269.116 527.4L270.178 527.495L268.959 540.049L266.794 539.857L267.766 529.847C266.846 529.765 266.008 529.876 265.25 530.179C264.494 530.475 263.874 530.94 263.392 531.575C262.91 532.202 262.625 532.968 262.537 533.873C262.44 534.87 262.604 535.754 263.029 536.526C263.447 537.291 264.03 537.903 264.777 538.361C265.525 538.82 266.348 539.089 267.246 539.17L268.689 539.298C269.92 539.408 270.984 539.289 271.881 538.941C272.772 538.585 273.477 538.046 273.997 537.322C274.51 536.597 274.815 535.73 274.913 534.719C274.977 534.061 274.943 533.459 274.81 532.913C274.672 532.359 274.434 531.87 274.096 531.448C273.752 531.025 273.307 530.683 272.762 530.42L273.676 528.063C274.472 528.391 275.152 528.883 275.716 529.539C276.273 530.195 276.682 530.98 276.943 531.894C277.197 532.808 277.27 533.817 277.163 534.919Z" fill="url(#paint25_linear_10_604)"/>
<path d="M284.707 490.775L268.981 486.254L269.667 483.924L272.124 484.631L272.185 484.426C271.441 483.858 270.945 483.143 270.696 482.28C270.439 481.416 270.462 480.473 270.763 479.451C271.068 478.415 271.557 477.621 272.231 477.069C272.9 476.507 273.712 476.153 274.666 476.006L274.714 475.842C274.02 475.207 273.552 474.419 273.312 473.477C273.064 472.534 273.105 471.5 273.437 470.376C273.85 468.973 274.629 467.952 275.772 467.312C276.909 466.671 278.402 466.616 280.252 467.148L290.777 470.173L290.067 472.585L279.541 469.559C278.381 469.226 277.458 469.304 276.773 469.795C276.088 470.285 275.619 470.959 275.366 471.818C275.041 472.921 275.124 473.873 275.614 474.671C276.098 475.468 276.848 476.012 277.865 476.305L288.104 479.248L287.381 481.7L276.61 478.604C275.716 478.347 274.91 478.43 274.194 478.852C273.47 479.272 272.974 479.939 272.705 480.851C272.52 481.478 272.515 482.112 272.689 482.753C272.864 483.388 273.2 483.957 273.696 484.462C274.186 484.957 274.817 485.316 275.589 485.538L285.418 488.363L284.707 490.775Z" fill="url(#paint26_linear_10_604)"/>
<path d="M299.064 420.505L298.599 422.803C298.198 422.758 297.776 422.778 297.333 422.863C296.887 422.939 296.452 423.132 296.028 423.442C295.605 423.752 295.225 424.232 294.89 424.883C294.432 425.773 294.255 426.619 294.361 427.423C294.463 428.216 294.827 428.773 295.454 429.092C296.011 429.376 296.555 429.398 297.085 429.158C297.616 428.919 298.211 428.425 298.868 427.676L300.512 425.787C301.499 424.648 302.482 423.926 303.463 423.62C304.437 423.312 305.433 423.417 306.452 423.936C307.287 424.362 307.91 424.983 308.321 425.798C308.735 426.607 308.912 427.534 308.853 428.58C308.793 429.626 308.472 430.714 307.89 431.844C307.125 433.327 306.17 434.391 305.023 435.034C303.877 435.677 302.617 435.812 301.243 435.439L301.805 433.047C302.694 433.245 303.479 433.163 304.161 432.801C304.846 432.433 305.424 431.791 305.896 430.875C306.433 429.834 306.638 428.894 306.51 428.056C306.38 427.208 306.001 426.624 305.375 426.305C304.869 426.047 304.354 426.008 303.83 426.187C303.3 426.363 302.76 426.774 302.212 427.419L300.393 429.553C299.391 430.724 298.396 431.453 297.41 431.739C296.42 432.016 295.422 431.898 294.416 431.385C293.593 430.966 292.985 430.364 292.589 429.581C292.197 428.791 292.027 427.903 292.08 426.918C292.136 425.926 292.427 424.918 292.954 423.896C293.696 422.456 294.595 421.487 295.65 420.989C296.709 420.485 297.847 420.323 299.064 420.505Z" fill="url(#paint27_linear_10_604)"/>
<path d="M338.156 384.742C337.832 385.155 337.405 385.394 336.877 385.459C336.348 385.523 335.876 385.394 335.462 385.07C335.048 384.747 334.809 384.321 334.744 383.793C334.68 383.265 334.81 382.794 335.134 382.38C335.458 381.967 335.885 381.728 336.414 381.663C336.942 381.599 337.414 381.728 337.828 382.052C338.102 382.266 338.299 382.533 338.419 382.852C338.544 383.165 338.586 383.491 338.546 383.829C338.505 384.158 338.375 384.462 338.156 384.742Z" fill="url(#paint28_linear_10_604)"/>
<path d="M710.247 682.494L467.001 696.643L526.027 478.151L626.574 472.285L710.247 682.494Z" fill="url(#paint29_linear_10_604)"/>
<path d="M674.594 684.557L502.654 694.581L540.751 477.291L611.851 473.144L674.594 684.557Z" fill="url(#paint30_linear_10_604)"/>
<path d="M624.451 687.441L552.738 691.669L561.474 476.067L591.127 474.369L624.451 687.441Z" fill="url(#paint31_linear_10_604)"/>
<path d="M572.177 484.447C625.485 481.339 667.817 463.459 666.727 444.509C665.638 425.56 621.541 412.718 568.233 415.825C514.925 418.933 472.593 436.813 473.682 455.762C474.772 474.712 518.869 487.554 572.177 484.447Z" fill="#340175"/>
<path d="M571.696 476.824C672.132 470.969 752.668 450.861 751.579 431.912C750.489 412.963 668.187 402.348 567.751 408.202C467.316 414.057 386.78 434.165 387.869 453.114C388.958 472.063 471.26 482.678 571.696 476.824Z" fill="#310B7C"/>
<path d="M690.348 409.939C657.778 406.342 614.773 405.415 567.793 408.154C467.393 414.015 386.86 434.121 387.946 453.071C388.207 457.082 392.031 460.7 398.922 463.912C430.933 471.579 471.71 475.024 515.761 472.391C602.696 467.314 674.114 440.82 690.348 409.939Z" fill="url(#paint32_linear_10_604)"/>
<path d="M745.454 423.662C746.38 424.949 746.899 426.339 746.978 427.745C748.065 446.695 669.522 466.698 571.493 472.414C473.463 478.13 393.151 467.409 392.064 448.459C391.985 447.053 392.345 445.632 393.144 444.194C389.582 447.112 387.782 450.112 387.946 453.071C389.033 472.021 471.336 482.639 571.736 476.778C672.137 470.918 752.67 450.812 751.583 431.862C751.392 428.963 749.269 426.194 745.454 423.662Z" fill="url(#paint33_linear_10_604)"/>
<path d="M568.816 426.138C599.901 424.301 629.047 420.714 654.483 415.942C654.463 415.356 654.442 414.77 654.421 414.184C652.762 384.952 612.866 363.455 565.36 366.243C517.853 369.031 480.676 394.982 482.394 424.24C482.415 424.826 482.496 425.44 482.544 425.966C508.362 427.784 537.731 427.976 568.816 426.138Z" fill="#310B7C"/>
<path d="M565.915 368.659C535.356 370.448 509.6 382.716 497.573 399.15C510.769 385.051 534.515 374.822 562.177 373.227C604.269 370.783 639.743 389.184 643.088 414.714C644.428 414.46 645.769 414.205 647.109 413.951C647.12 413.452 647.099 412.865 647.051 412.339C645.514 385.686 609.179 366.172 565.915 368.659Z" fill="url(#paint34_linear_10_604)"/>
<path d="M510.111 382.227C492.309 393.002 481.467 408.102 482.362 424.153C482.383 424.739 482.463 425.353 482.511 425.879C508.33 427.697 537.698 427.889 568.783 426.051C580.55 425.358 591.986 424.443 603.032 423.277C514.302 428.184 489.129 418.154 489.129 418.154C486.479 399.789 510.111 382.227 510.111 382.227Z" fill="#340175"/>
<path d="M721.024 434.677C725.939 434.39 729.792 431.871 729.63 429.051C729.468 426.23 725.352 424.176 720.437 424.462C715.522 424.749 711.669 427.267 711.831 430.088C711.993 432.909 716.109 434.963 721.024 434.677Z" fill="#340175"/>
<path d="M720.968 433.73C725.015 433.494 728.14 430.576 727.947 427.213C727.753 423.85 724.315 421.315 720.268 421.551C716.22 421.787 713.095 424.705 713.289 428.068C713.482 431.431 716.92 433.966 720.968 433.73Z" fill="#FFD647"/>
<path d="M720.324 422.23C716.694 422.45 713.941 425.016 714.105 427.975C715.769 428.589 717.667 429.165 719.733 429.53C722.152 429.912 724.474 430.033 726.492 429.871C726.992 429.09 727.221 428.113 727.19 427.233C726.966 424.248 723.953 422.01 720.324 422.23Z" fill="url(#paint35_linear_10_604)"/>
<path d="M661.221 452.317C666.136 452.03 669.989 449.511 669.827 446.69C669.664 443.87 665.549 441.815 660.633 442.102C655.718 442.388 651.865 444.907 652.027 447.728C652.189 450.549 656.305 452.603 661.221 452.317Z" fill="#340175"/>
<path d="M661.161 451.304C665.208 451.068 668.333 448.151 668.14 444.788C667.947 441.425 664.508 438.889 660.461 439.125C656.413 439.361 653.288 442.279 653.482 445.642C653.675 449.005 657.113 451.54 661.161 451.304Z" fill="#FFD647"/>
<path d="M660.467 439.791C656.838 440.012 654.084 442.578 654.248 445.536C655.913 446.15 657.811 446.727 659.877 447.092C662.296 447.473 664.617 447.594 666.635 447.432C667.136 446.651 667.365 445.674 667.333 444.795C667.169 441.836 664.096 439.571 660.467 439.791Z" fill="url(#paint36_linear_10_604)"/>
<path d="M601.119 465.822C606.034 465.535 609.887 463.016 609.725 460.196C609.563 457.375 605.447 455.321 600.532 455.607C595.616 455.894 591.763 458.412 591.926 461.233C592.088 464.054 596.204 466.108 601.119 465.822Z" fill="#340175"/>
<path d="M601.059 464.809C605.107 464.573 608.231 461.656 608.038 458.293C607.845 454.93 604.407 452.395 600.359 452.63C596.311 452.866 593.186 455.784 593.38 459.147C593.573 462.51 597.011 465.045 601.059 464.809Z" fill="#FFD647"/>
<path d="M600.437 453.309C596.808 453.529 594.054 456.095 594.218 459.053C595.883 459.668 597.781 460.244 599.847 460.609C602.266 460.991 604.587 461.111 606.605 460.95C607.105 460.168 607.335 459.192 607.303 458.312C607.079 455.327 604.039 453.148 600.437 453.309Z" fill="url(#paint37_linear_10_604)"/>
<path d="M540.516 469.33C545.431 469.043 549.284 466.524 549.122 463.704C548.96 460.883 544.844 458.828 539.929 459.115C535.014 459.402 531.161 461.92 531.323 464.741C531.485 467.562 535.601 469.616 540.516 469.33Z" fill="#340175"/>
<path d="M540.46 468.383C544.508 468.147 547.632 465.229 547.439 461.866C547.246 458.503 543.808 455.968 539.76 456.204C535.712 456.44 532.587 459.357 532.781 462.721C532.974 466.084 536.412 468.619 540.46 468.383Z" fill="#FFD647"/>
<path d="M539.759 456.871C536.129 457.091 533.375 459.657 533.54 462.615C535.204 463.23 537.102 463.806 539.168 464.171C541.587 464.552 543.909 464.673 545.927 464.512C546.427 463.73 546.656 462.753 546.625 461.874C546.461 458.916 543.388 456.65 539.759 456.871Z" fill="url(#paint38_linear_10_604)"/>
<path d="M479.286 462.914C484.201 462.627 488.054 460.108 487.892 457.287C487.73 454.467 483.614 452.412 478.698 452.699C473.783 452.985 469.93 455.504 470.092 458.325C470.254 461.146 474.37 463.2 479.286 462.914Z" fill="#340175"/>
<path d="M479.226 461.901C483.273 461.665 486.398 458.748 486.205 455.385C486.011 452.021 482.573 449.486 478.526 449.722C474.478 449.958 471.353 452.876 471.546 456.239C471.74 459.602 475.178 462.137 479.226 461.901Z" fill="#FFD647"/>
<path d="M478.545 450.385C474.916 450.605 472.162 453.171 472.327 456.129C473.991 456.744 475.889 457.32 477.955 457.685C480.374 458.067 482.696 458.187 484.714 458.026C485.214 457.244 485.443 456.268 485.412 455.388C485.247 452.43 482.148 450.224 478.545 450.385Z" fill="url(#paint39_linear_10_604)"/>
<path d="M417.822 452.359C422.737 452.072 426.591 449.554 426.428 446.733C426.266 443.912 422.15 441.858 417.235 442.144C412.32 442.431 408.467 444.95 408.629 447.77C408.791 450.591 412.907 452.645 417.822 452.359Z" fill="#340175"/>
<path d="M417.766 451.412C421.814 451.176 424.938 448.259 424.745 444.895C424.552 441.532 421.114 438.997 417.066 439.233C413.018 439.469 409.894 442.387 410.087 445.75C410.28 449.113 413.718 451.648 417.766 451.412Z" fill="#FFD647"/>
<path d="M417.132 439.915C413.503 440.135 410.749 442.701 410.913 445.659C412.578 446.274 414.476 446.85 416.542 447.215C418.961 447.596 421.282 447.717 423.3 447.556C423.8 446.774 424.03 445.797 423.998 444.918C423.774 441.932 420.761 439.694 417.132 439.915Z" fill="url(#paint40_linear_10_604)"/>
<path d="M490.045 422.464C490.045 422.464 517.63 426.096 555.212 421.38C555.212 421.38 560.046 385.015 580.784 368.586C580.757 368.646 503.473 364.713 490.045 422.464Z" fill="url(#paint41_linear_10_604)"/>
<g opacity="0.17">
<path d="M641.464 579.698L625.331 584.94C623.346 585.585 622.235 587.644 622.85 589.537L625.355 597.246C626.925 597.726 628.311 598.742 629.192 600.22C630.553 602.503 630.342 605.267 628.892 607.373L634.071 617.624L633.08 620.556L633.044 620.549C633.915 621.925 635.692 622.581 637.383 622.031L661.303 614.259C663.288 613.614 664.399 611.556 663.784 609.662L656.374 586.856L641.464 579.698Z" fill="#330D84"/>
<path d="M641.464 579.698L643.878 587.126C644.493 589.019 646.601 590.031 648.586 589.387L656.374 586.856L641.464 579.698Z" fill="#6857E5"/>
<path d="M637.466 587.453L628.513 590.362C628.285 590.436 628.094 590.593 627.983 590.8C627.871 591.006 627.849 591.245 627.919 591.463C627.99 591.68 628.149 591.86 628.36 591.961C628.572 592.063 628.819 592.078 629.047 592.004L638 589.095C638.228 589.021 638.419 588.863 638.531 588.657C638.642 588.45 638.665 588.212 638.594 587.994C638.523 587.776 638.365 587.597 638.153 587.495C637.942 587.394 637.695 587.378 637.466 587.453ZM642.575 591.458L630.178 595.486C629.95 595.56 629.759 595.718 629.648 595.924C629.536 596.131 629.514 596.369 629.584 596.587C629.655 596.805 629.814 596.984 630.025 597.086C630.237 597.187 630.484 597.202 630.712 597.128L643.109 593.1C643.337 593.026 643.528 592.868 643.639 592.662C643.751 592.456 643.774 592.217 643.703 591.999C643.632 591.782 643.474 591.602 643.262 591.501C643.051 591.399 642.804 591.384 642.575 591.458ZM651.989 594.064L631.843 600.61C631.615 600.684 631.424 600.842 631.313 601.048C631.201 601.255 631.178 601.493 631.249 601.711C631.32 601.929 631.479 602.108 631.69 602.21C631.901 602.311 632.149 602.326 632.377 602.252L652.522 595.707C652.751 595.632 652.942 595.475 653.053 595.268C653.164 595.062 653.187 594.824 653.116 594.606C653.046 594.388 652.887 594.209 652.676 594.107C652.464 594.005 652.217 593.99 651.989 594.064ZM653.654 599.188L633.508 605.734C633.28 605.808 633.089 605.966 632.978 606.172C632.866 606.379 632.843 606.617 632.914 606.835C632.985 607.053 633.143 607.232 633.355 607.334C633.566 607.435 633.813 607.45 634.042 607.376L654.187 600.831C654.416 600.756 654.606 600.599 654.718 600.392C654.829 600.186 654.852 599.948 654.781 599.73C654.711 599.512 654.552 599.333 654.34 599.231C654.129 599.129 653.882 599.114 653.654 599.188ZM655.319 604.313L635.173 610.858C634.945 610.932 634.754 611.09 634.643 611.297C634.531 611.503 634.508 611.741 634.579 611.959C634.65 612.177 634.808 612.356 635.02 612.458C635.231 612.559 635.478 612.575 635.707 612.501L655.852 605.955C656.081 605.881 656.271 605.723 656.383 605.517C656.494 605.31 656.517 605.072 656.446 604.854C656.376 604.636 656.217 604.457 656.005 604.355C655.794 604.254 655.547 604.238 655.319 604.313ZM656.983 609.437L636.838 615.982C636.61 616.056 636.419 616.214 636.307 616.421C636.196 616.627 636.173 616.865 636.244 617.083C636.315 617.301 636.473 617.48 636.685 617.582C636.896 617.683 637.143 617.699 637.372 617.625L657.517 611.079C657.745 611.005 657.936 610.847 658.048 610.641C658.159 610.434 658.182 610.196 658.111 609.978C658.04 609.76 657.882 609.581 657.67 609.479C657.459 609.378 657.212 609.362 656.983 609.437Z" fill="white"/>
<path d="M629.192 600.22C627.276 597.006 622.97 595.968 619.576 597.902C616.181 599.837 614.982 604.011 616.899 607.226C618.259 609.509 620.823 610.692 623.412 610.495L626.888 615.5L629.106 616.035L628.588 617.839L630.449 618.288L629.974 619.943L629.982 619.954L633.08 620.556L634.071 617.624L628.892 607.373C630.342 605.267 630.553 602.502 629.192 600.22ZM623.111 603.834C621.822 604.568 620.187 604.174 619.459 602.953C618.732 601.733 619.187 600.147 620.476 599.413C621.765 598.678 623.4 599.072 624.128 600.293C624.856 601.514 624.401 603.099 623.111 603.834Z" fill="#FFBE1B"/>
</g>
<g opacity="0.52">
<path opacity="0.45" d="M563.695 648.947L556.818 661.81L540.359 663.685L547.23 650.823L563.695 648.947Z" fill="#300B77"/>
<path opacity="0.6" d="M556.818 661.81L573.283 659.934L563.695 648.947L547.23 650.823L556.818 661.81Z" fill="#300B77"/>
<path opacity="0.8" d="M549.946 674.667L556.818 661.81L547.23 650.823L540.359 663.685L549.946 674.667Z" fill="#300B77"/>
<path opacity="0.45" d="M552.064 692.544L558.941 679.682L575.406 677.806L568.529 690.668L552.064 692.544Z" fill="#300B77"/>
<path opacity="0.6" d="M558.941 679.682L542.476 681.558L552.064 692.544L568.529 690.668L558.941 679.682Z" fill="#300B77"/>
<path opacity="0.8" d="M565.813 666.825L558.941 679.682L568.529 690.668L575.406 677.806L565.813 666.825Z" fill="#300B77"/>
</g>
<g opacity="0.15">
<path d="M601.433 475.33L585.304 486.938L588.409 479.894L601.433 475.33Z" fill="#E17726" stroke="#E17726" stroke-width="0.25" stroke-linecap="round" stroke-linejoin="round"/>
<path d="M565.384 474.071L580.422 486.893L577.939 479.528L565.384 474.071Z" fill="#E27625" stroke="#E27625" stroke-width="0.25" stroke-linecap="round" stroke-linejoin="round"/>
<path d="M594.852 503.458L590.456 509.955L599.287 512.898L602.105 503.837L594.852 503.458Z" fill="#E27625" stroke="#E27625" stroke-width="0.25" stroke-linecap="round" stroke-linejoin="round"/>
<path d="M562.725 502.461L564.904 511.697L573.919 509.377L569.986 502.589L562.725 502.461Z" fill="#E27625" stroke="#E27625" stroke-width="0.25" stroke-linecap="round" stroke-linejoin="round"/>
<path d="M574.073 491.314L571.439 495.112L580.23 495.795L580.342 485.761L574.073 491.314Z" fill="#E27625" stroke="#E27625" stroke-width="0.25" stroke-linecap="round" stroke-linejoin="round"/>
<path d="M591.562 491.924L585.577 485.943L584.984 496.086L593.802 496.018L591.562 491.924Z" fill="#E27625" stroke="#E27625" stroke-width="0.25" stroke-linecap="round" stroke-linejoin="round"/>
<path d="M573.919 509.377L579.369 506.807L574.86 502.885L573.919 509.377Z" fill="#E27625" stroke="#E27625" stroke-width="0.25" stroke-linecap="round" stroke-linejoin="round"/>
<path d="M585.199 507.011L590.456 509.955L589.97 503.413L585.199 507.011Z" fill="#E27625" stroke="#E27625" stroke-width="0.25" stroke-linecap="round" stroke-linejoin="round"/>
<path d="M590.456 509.955L585.199 507.011L585.548 510.662L585.495 512.166L590.456 509.955Z" fill="#D5BFB2" stroke="#D5BFB2" stroke-width="0.25" stroke-linecap="round" stroke-linejoin="round"/>
<path d="M573.919 509.377L578.828 512.058L578.881 510.554L579.483 506.936L573.919 509.377Z" fill="#D5BFB2" stroke="#D5BFB2" stroke-width="0.25" stroke-linecap="round" stroke-linejoin="round"/>
<path d="M579.226 500.654L574.872 499.121L578.018 497.725L579.226 500.654Z" fill="#233447" stroke="#233447" stroke-width="0.25" stroke-linecap="round" stroke-linejoin="round"/>
<path d="M585.651 500.878L587.06 498.041L590.101 499.653L585.651 500.878Z" fill="#233447" stroke="#233447" stroke-width="0.25" stroke-linecap="round" stroke-linejoin="round"/>
<path d="M573.919 509.377L574.864 502.76L569.982 502.715L573.919 509.377Z" fill="#CC6228" stroke="#CC6228" stroke-width="0.25" stroke-linecap="round" stroke-linejoin="round"/>
<path d="M589.855 503.283L590.337 509.95L594.729 503.579L589.855 503.283Z" fill="#CC6228" stroke="#CC6228" stroke-width="0.25" stroke-linecap="round" stroke-linejoin="round"/>
<path d="M593.921 496.022L585.103 496.091L585.77 500.882L587.179 498.045L590.22 499.657L593.921 496.022Z" fill="#CC6228" stroke="#CC6228" stroke-width="0.25" stroke-linecap="round" stroke-linejoin="round"/>
<path d="M574.872 499.121L578.018 497.725L579.226 500.654L580.225 495.92L571.434 495.237L574.872 499.121Z" fill="#CC6228" stroke="#CC6228" stroke-width="0.25" stroke-linecap="round" stroke-linejoin="round"/>
<path d="M571.434 495.237L574.856 503.011L574.868 499.247L571.434 495.237Z" fill="#E27525" stroke="#E27525" stroke-width="0.25" stroke-linecap="round" stroke-linejoin="round"/>
<path d="M590.22 499.657L589.97 503.413L593.925 495.897L590.22 499.657Z" fill="#E27525" stroke="#E27525" stroke-width="0.25" stroke-linecap="round" stroke-linejoin="round"/>
<path d="M580.225 495.92L579.226 500.654L580.1 506.331L580.596 498.945L580.225 495.92Z" fill="#E27525" stroke="#E27525" stroke-width="0.25" stroke-linecap="round" stroke-linejoin="round"/>
<path d="M584.984 496.086L584.404 499.078L584.383 506.48L585.651 500.878L584.984 496.086Z" fill="#E27525" stroke="#E27525" stroke-width="0.25" stroke-linecap="round" stroke-linejoin="round"/>
<path d="M585.651 500.878L584.383 506.48L585.079 507.006L589.851 503.409L590.101 499.653L585.651 500.878Z" fill="#F5841F" stroke="#F5841F" stroke-width="0.25" stroke-linecap="round" stroke-linejoin="round"/>
<path d="M574.872 499.121L574.86 502.885L579.369 506.807L580.1 506.331L579.226 500.654L574.872 499.121Z" fill="#F5841F" stroke="#F5841F" stroke-width="0.25" stroke-linecap="round" stroke-linejoin="round"/>
<path d="M585.372 512.287L585.424 510.783L585.08 510.394L579.132 510.187L578.762 510.55L578.709 512.054L573.919 509.377L575.651 510.943L579.013 513.57L585.081 513.782L588.738 511.4L590.456 509.955L585.372 512.287Z" fill="#C0AC9D" stroke="#C0AC9D" stroke-width="0.25" stroke-linecap="round" stroke-linejoin="round"/>
<path d="M585.198 507.011L584.502 506.484L580.1 506.331L579.369 506.807L578.766 510.425L579.136 510.061L585.085 510.269L585.428 510.657L585.198 507.011Z" fill="#161616" stroke="#161616" stroke-width="0.25" stroke-linecap="round" stroke-linejoin="round"/>
<path d="M601.573 488.384L603.118 481.662L601.314 475.325L585.912 486.582L591.562 491.924L599.684 494.718L601.547 492.524L600.732 491.994L602.084 490.786L601.159 490.001L602.503 489.044L601.573 488.384Z" fill="#763E1A" stroke="#763E1A" stroke-width="0.25" stroke-linecap="round" stroke-linejoin="round"/>
<path d="M563.142 480.266L564.215 487.08L563.36 487.677L564.634 488.725L563.656 489.444L564.921 490.743L564.066 491.341L565.772 493.659L574.069 491.439L580.078 486.504L565.384 474.071L563.142 480.266Z" fill="#763E1A" stroke="#763E1A" stroke-width="0.25" stroke-linecap="round" stroke-linejoin="round"/>
<path d="M599.684 494.718L591.562 491.924L593.925 495.897L589.97 503.413L594.852 503.458L602.11 503.711L599.684 494.718Z" fill="#F5841F" stroke="#F5841F" stroke-width="0.25" stroke-linecap="round" stroke-linejoin="round"/>
<path d="M574.073 491.314L565.776 493.533L562.729 502.336L569.986 502.589L574.86 502.885L571.439 495.111L574.073 491.314Z" fill="#F5841F" stroke="#F5841F" stroke-width="0.25" stroke-linecap="round" stroke-linejoin="round"/>
<path d="M584.984 496.086L585.793 486.578L588.409 479.894L577.82 479.524L579.963 486.375L580.106 495.916L580.239 498.932L579.981 506.326L584.383 506.48L584.641 499.086L584.984 496.086Z" fill="#F5841F" stroke="#F5841F" stroke-width="0.25" stroke-linecap="round" stroke-linejoin="round"/>
</g>
<g opacity="0.27">
<g opacity="0.6">
<mask id="mask0_10_604" style="mask-type:luminance" maskUnits="userSpaceOnUse" x="508" y="567" width="43" height="28">
<path d="M512.862 567.699L550.995 575.805L546.991 594.643L508.858 586.538L512.862 567.699Z" fill="white"/>
</mask>
<g mask="url(#mask0_10_604)">
<path d="M531.933 571.753L511.121 575.893L527.928 590.591L549.254 583.999L531.933 571.753Z" fill="#010101"/>
</g>
</g>
<g opacity="0.45">
<mask id="mask1_10_604" style="mask-type:luminance" maskUnits="userSpaceOnUse" x="508" y="546" width="29" height="45">
<path d="M517.475 546L536.545 550.053L527.928 590.591L508.858 586.538L517.475 546Z" fill="white"/>
</mask>
<g mask="url(#mask1_10_604)">
<path d="M511.121 575.893L527.928 590.591L536.545 550.053L511.121 575.893Z" fill="#010101"/>
</g>
</g>
<g opacity="0.8">
<mask id="mask2_10_604" style="mask-type:luminance" maskUnits="userSpaceOnUse" x="527" y="550" width="29" height="45">
<path d="M536.545 550.053L555.615 554.107L546.999 594.645L527.928 590.591L536.545 550.053Z" fill="white"/>
</mask>
<g mask="url(#mask2_10_604)">
<path d="M536.545 550.053L527.928 590.591L549.254 583.999L536.545 550.053Z" fill="#010101"/>
</g>
</g>
<g opacity="0.45">
<mask id="mask3_10_604" style="mask-type:luminance" maskUnits="userSpaceOnUse" x="505" y="579" width="25" height="30">
<path d="M510.395 579.307L529.465 583.36L524.07 608.742L505 604.689L510.395 579.307Z" fill="white"/>
</mask>
<g mask="url(#mask3_10_604)">
<path d="M510.395 579.307L524.07 608.742L527.203 594.005L510.395 579.307Z" fill="#010101"/>
</g>
</g>
<g opacity="0.8">
<mask id="mask4_10_604" style="mask-type:luminance" maskUnits="userSpaceOnUse" x="524" y="583" width="25" height="30">
<path d="M529.465 583.36L548.543 587.415L543.148 612.797L524.07 608.742L529.465 583.36Z" fill="white"/>
</mask>
<g mask="url(#mask4_10_604)">
<path d="M527.203 594.005L524.07 608.742L548.543 587.415L527.203 594.005Z" fill="#010101"/>
</g>
</g>
</g>
<defs>
<linearGradient id="paint0_linear_10_604" x1="303.505" y1="262.394" x2="380.491" y2="350.678" gradientUnits="userSpaceOnUse">
<stop offset="0.630208" stop-color="#0038FF"/>
<stop offset="1" stop-color="white" stop-opacity="0"/>
</linearGradient>
<linearGradient id="paint1_linear_10_604" x1="364.96" y1="218.651" x2="424.025" y2="319.883" gradientUnits="userSpaceOnUse">
<stop offset="0.630208" stop-color="#0038FF"/>
<stop offset="1" stop-color="white" stop-opacity="0"/>
</linearGradient>
<linearGradient id="paint2_linear_10_604" x1="433.485" y1="187.268" x2="472.489" y2="297.922" gradientUnits="userSpaceOnUse">
<stop offset="0.630208" stop-color="#0038FF"/>
<stop offset="1" stop-color="white" stop-opacity="0"/>
</linearGradient>
<linearGradient id="paint3_linear_10_604" x1="504.987" y1="169.621" x2="522.444" y2="285.808" gradientUnits="userSpaceOnUse">
<stop offset="0.630208" stop-color="#0038FF"/>
<stop offset="1" stop-color="white" stop-opacity="0"/>
</linearGradient>
<linearGradient id="paint4_linear_10_604" x1="581.673" y1="165.627" x2="576.827" y2="283.2" gradientUnits="userSpaceOnUse">
<stop offset="0.630208" stop-color="#0038FF"/>
<stop offset="1" stop-color="white" stop-opacity="0"/>
</linearGradient>
<linearGradient id="paint5_linear_10_604" x1="655.979" y1="176.153" x2="628.874" y2="290.837" gradientUnits="userSpaceOnUse">
<stop offset="0.630208" stop-color="#0038FF"/>
<stop offset="1" stop-color="white" stop-opacity="0"/>
</linearGradient>
<linearGradient id="paint6_linear_10_604" x1="725.352" y1="199.904" x2="676.868" y2="307.463" gradientUnits="userSpaceOnUse">
<stop offset="0.630208" stop-color="#0038FF"/>
<stop offset="1" stop-color="white" stop-opacity="0"/>
</linearGradient>
<linearGradient id="paint7_linear_10_604" x1="790.357" y1="237.066" x2="722.212" y2="333.481" gradientUnits="userSpaceOnUse">
<stop offset="0.630208" stop-color="#0038FF"/>
<stop offset="1" stop-color="white" stop-opacity="0"/>
</linearGradient>
<linearGradient id="paint8_linear_10_604" x1="848.184" y1="287.094" x2="762.898" y2="368.764" gradientUnits="userSpaceOnUse">
<stop offset="0.630208" stop-color="#0038FF"/>
<stop offset="1" stop-color="white" stop-opacity="0"/>
</linearGradient>
<linearGradient id="paint9_linear_10_604" x1="928.321" y1="412.805" x2="818.818" y2="456.554" gradientUnits="userSpaceOnUse">
<stop offset="0.630208" stop-color="#0038FF"/>
<stop offset="1" stop-color="white" stop-opacity="0"/>
</linearGradient>
<linearGradient id="paint10_linear_10_604" x1="948.762" y1="483.276" x2="833.097" y2="505.392" gradientUnits="userSpaceOnUse">
<stop offset="0.630208" stop-color="#0038FF"/>
<stop offset="1" stop-color="white" stop-opacity="0"/>
</linearGradient>
<linearGradient id="paint11_linear_10_604" x1="955.778" y1="558.054" x2="838.197" y2="557.855" gradientUnits="userSpaceOnUse">
<stop offset="0.630208" stop-color="#0038FF"/>
<stop offset="1" stop-color="white" stop-opacity="0"/>
</linearGradient>
<linearGradient id="paint12_linear_10_604" x1="926.611" y1="706.7" x2="817.77" y2="663.074" gradientUnits="userSpaceOnUse">
<stop offset="0.630208" stop-color="#0038FF"/>
<stop offset="1" stop-color="white" stop-opacity="0"/>
</linearGradient>
<linearGradient id="paint13_linear_10_604" x1="892.68" y1="772.21" x2="794.062" y2="708.954" gradientUnits="userSpaceOnUse">
<stop offset="0.630208" stop-color="#0038FF"/>
<stop offset="1" stop-color="white" stop-opacity="0"/>
</linearGradient>
<linearGradient id="paint14_linear_10_604" x1="846.135" y1="831.593" x2="761.174" y2="750.968" gradientUnits="userSpaceOnUse">
<stop offset="0.630208" stop-color="#0038FF"/>
<stop offset="1" stop-color="white" stop-opacity="0"/>
</linearGradient>
<linearGradient id="paint15_linear_10_604" x1="789.27" y1="881.181" x2="720.939" y2="786.009" gradientUnits="userSpaceOnUse">
<stop offset="0.630208" stop-color="#0038FF"/>
<stop offset="1" stop-color="white" stop-opacity="0"/>
</linearGradient>
<linearGradient id="paint16_linear_10_604" x1="651.508" y1="944.62" x2="623.136" y2="830.695" gradientUnits="userSpaceOnUse">
<stop offset="0.630208" stop-color="#0038FF"/>
<stop offset="1" stop-color="white" stop-opacity="0"/>
</linearGradient>
<linearGradient id="paint17_linear_10_604" x1="578.709" y1="955.401" x2="572.357" y2="837.992" gradientUnits="userSpaceOnUse">
<stop offset="0.630208" stop-color="#0038FF"/>
<stop offset="1" stop-color="white" stop-opacity="0"/>
</linearGradient>
<linearGradient id="paint18_linear_10_604" x1="502.05" y1="952.087" x2="518.083" y2="835.423" gradientUnits="userSpaceOnUse">
<stop offset="0.630208" stop-color="#0038FF"/>
<stop offset="1" stop-color="white" stop-opacity="0"/>
</linearGradient>
<linearGradient id="paint19_linear_10_604" x1="430.681" y1="935.059" x2="468.638" y2="823.417" gradientUnits="userSpaceOnUse">
<stop offset="0.630208" stop-color="#0038FF"/>
<stop offset="1" stop-color="white" stop-opacity="0"/>
</linearGradient>
<linearGradient id="paint20_linear_10_604" x1="300.028" y1="860.009" x2="377.109" y2="770.553" gradientUnits="userSpaceOnUse">
<stop offset="0.630208" stop-color="#0038FF"/>
<stop offset="1" stop-color="white" stop-opacity="0"/>
</linearGradient>
<linearGradient id="paint21_linear_10_604" x1="249.504" y1="807.006" x2="342.22" y2="733.909" gradientUnits="userSpaceOnUse">
<stop offset="0.630208" stop-color="#0038FF"/>
<stop offset="1" stop-color="white" stop-opacity="0"/>
</linearGradient>
<linearGradient id="paint22_linear_10_604" x1="208.99" y1="744.036" x2="313.865" y2="689.988" gradientUnits="userSpaceOnUse">
<stop offset="0.630208" stop-color="#0038FF"/>
<stop offset="1" stop-color="white" stop-opacity="0"/>
</linearGradient>
<linearGradient id="paint23_linear_10_604" x1="180.726" y1="672.871" x2="293.835" y2="639.801" gradientUnits="userSpaceOnUse">
<stop offset="0.630208" stop-color="#0038FF"/>
<stop offset="1" stop-color="white" stop-opacity="0"/>
</linearGradient>
<linearGradient id="paint24_linear_10_604" x1="167.089" y1="600.721" x2="284.247" y2="589.73" gradientUnits="userSpaceOnUse">
<stop offset="0.630208" stop-color="#0038FF"/>
<stop offset="1" stop-color="white" stop-opacity="0"/>
</linearGradient>
<linearGradient id="paint25_linear_10_604" x1="167.216" y1="525.557" x2="284.157" y2="536.909" gradientUnits="userSpaceOnUse">
<stop offset="0.630208" stop-color="#0038FF"/>
<stop offset="1" stop-color="white" stop-opacity="0"/>
</linearGradient>
<linearGradient id="paint26_linear_10_604" x1="182.022" y1="450.089" x2="294.566" y2="483.248" gradientUnits="userSpaceOnUse">
<stop offset="0.630208" stop-color="#0038FF"/>
<stop offset="1" stop-color="white" stop-opacity="0"/>
</linearGradient>
<linearGradient id="paint27_linear_10_604" x1="209.602" y1="381.699" x2="313.786" y2="435.385" gradientUnits="userSpaceOnUse">
<stop offset="0.630208" stop-color="#0038FF"/>
<stop offset="1" stop-color="white" stop-opacity="0"/>
</linearGradient>
<linearGradient id="paint28_linear_10_604" x1="251.34" y1="316.914" x2="343.532" y2="389.175" gradientUnits="userSpaceOnUse">
<stop offset="0.630208" stop-color="#0038FF"/>
<stop offset="1" stop-color="white" stop-opacity="0"/>
</linearGradient>
<linearGradient id="paint29_linear_10_604" x1="588.607" y1="689.586" x2="576.113" y2="475.25" gradientUnits="userSpaceOnUse">
<stop stop-color="white" stop-opacity="0"/>
<stop offset="1" stop-color="white" stop-opacity="0.7"/>
</linearGradient>
<linearGradient id="paint30_linear_10_604" x1="588.608" y1="689.586" x2="576.113" y2="475.25" gradientUnits="userSpaceOnUse">
<stop stop-color="white" stop-opacity="0"/>
<stop offset="1" stop-color="white" stop-opacity="0.7"/>
</linearGradient>
<linearGradient id="paint31_linear_10_604" x1="588.608" y1="689.586" x2="576.113" y2="475.25" gradientUnits="userSpaceOnUse">
<stop stop-color="white" stop-opacity="0"/>
<stop offset="1" stop-color="white" stop-opacity="0.7"/>
</linearGradient>
<linearGradient id="paint32_linear_10_604" x1="536.985" y1="429.205" x2="624.315" y2="559.044" gradientUnits="userSpaceOnUse">
<stop stop-color="white" stop-opacity="0"/>
<stop offset="1" stop-color="white"/>
</linearGradient>
<linearGradient id="paint33_linear_10_604" x1="388.664" y1="465.992" x2="752.342" y2="445.088" gradientUnits="userSpaceOnUse">
<stop stop-color="white" stop-opacity="0"/>
<stop offset="1" stop-color="white"/>
</linearGradient>
<linearGradient id="paint34_linear_10_604" x1="497.473" y1="397.922" x2="645.722" y2="389.401" gradientUnits="userSpaceOnUse">
<stop stop-color="white" stop-opacity="0"/>
<stop offset="1" stop-color="white"/>
</linearGradient>
<linearGradient id="paint35_linear_10_604" x1="713.998" y1="426.624" x2="727.086" y2="425.872" gradientUnits="userSpaceOnUse">
<stop stop-color="white" stop-opacity="0"/>
<stop offset="1" stop-color="white"/>
</linearGradient>
<linearGradient id="paint36_linear_10_604" x1="654.166" y1="444.221" x2="667.255" y2="443.468" gradientUnits="userSpaceOnUse">
<stop stop-color="white" stop-opacity="0"/>
<stop offset="1" stop-color="white"/>
</linearGradient>
<linearGradient id="paint37_linear_10_604" x1="594.1" y1="457.737" x2="607.188" y2="456.984" gradientUnits="userSpaceOnUse">
<stop stop-color="white" stop-opacity="0"/>
<stop offset="1" stop-color="white"/>
</linearGradient>
<linearGradient id="paint38_linear_10_604" x1="533.46" y1="461.272" x2="546.548" y2="460.519" gradientUnits="userSpaceOnUse">
<stop stop-color="white" stop-opacity="0"/>
<stop offset="1" stop-color="white"/>
</linearGradient>
<linearGradient id="paint39_linear_10_604" x1="472.246" y1="454.825" x2="485.334" y2="454.073" gradientUnits="userSpaceOnUse">
<stop stop-color="white" stop-opacity="0"/>
<stop offset="1" stop-color="white"/>
</linearGradient>
<linearGradient id="paint40_linear_10_604" x1="410.798" y1="444.299" x2="423.886" y2="443.546" gradientUnits="userSpaceOnUse">
<stop stop-color="white" stop-opacity="0"/>
<stop offset="1" stop-color="white"/>
</linearGradient>
<linearGradient id="paint41_linear_10_604" x1="488.726" y1="399.799" x2="582.228" y2="394.424" gradientUnits="userSpaceOnUse">
<stop stop-color="white" stop-opacity="0"/>
<stop offset="1" stop-color="white"/>
</linearGradient>
</defs>
</svg>
